<svg xmlns="http://www.w3.org/2000/svg" viewBox="0 0 1024 1024"><defs><style>.cls-1{fill:#d74f3f;stroke:#ffb627;}.cls-1,.cls-3,.cls-5,.cls-7{stroke-miterlimit:10;stroke-width:90px;}.cls-2,.cls-5{fill:#ffb627;}.cls-3{fill:#005d4c;stroke:#a6adb1;}.cls-4{fill:#a6adb1;}.cls-5{stroke:#4d5055;}.cls-6{fill:#4d5055;}.cls-7,.cls-9{fill:#20316a;}.cls-7{stroke:#856034;}.cls-8{fill:#896034;}</style></defs><title>Artboard 1</title><g id="gryffindor"><polygon class="cls-1" points="496.03 891.4 209.01 724.12 209.01 146.56 496.03 120.15 783.05 146.56 783.05 724.12 496.03 891.4"/><polygon class="cls-2" points="656.27 257.5 496.03 243.41 337.55 257.5 337.55 644.88 496.03 732.93 656.27 644.88 656.27 399.34 496.03 452.17 569.99 452.17 569.99 590.3 496.03 630.8 420.31 590.3 420.31 328.41 496.03 321.37 656.27 337.21 656.27 257.5"/></g><g id="slytherin"><polygon class="cls-3" points="496.03 891.4 209.01 724.12 209.01 146.56 496.03 120.15 783.05 146.56 783.05 724.12 496.03 891.4"/><polygon class="cls-4" points="496.03 321.37 420.31 328.41 420.31 396.1 656.27 443.34 656.27 644.88 496.03 732.93 337.55 644.88 420.31 590.3 496.03 630.8 569.99 590.3 569.99 512.17 337.55 463.17 337.55 257.5 496.03 243.41 656.27 257.5 656.27 337.21 656.27 386.95 618.02 335.15 496.03 321.37"/></g><g id="hufflepuff"><polygon class="cls-5" points="496.03 891.4 209.01 724.12 209.01 146.56 496.03 120.15 783.05 146.56 783.05 724.12 496.03 891.4"/><polygon class="cls-6" points="420.31 461.17 420.31 690.86 337.55 644.88 337.55 257.5 420.3 250.14 420.3 387.41 569.99 365.41 569.99 249.81 656.27 257.5 656.27 644.88 569.99 692.29 569.99 439.17 420.31 461.17"/></g><g id="ravenclaw"><polygon class="cls-7" points="496.03 891.4 209.01 724.12 209.01 146.56 496.03 120.15 783.05 146.56 783.05 724.12 496.03 891.4"/><polygon class="cls-8" points="656.27 445.51 656.27 257.5 496.03 243.41 337.55 257.5 337.55 644.88 420.21 690.8 421.65 494.25 471.97 483.96 569.99 546.99 569.99 692.29 656.27 644.88 653.17 502.86 583.59 462.22 656.27 445.51"/><polygon class="cls-9" points="569.99 328.68 496.03 321.37 420.31 328.41 420.29 411.04 569.99 386.64 569.99 328.68"/></g></svg>